<svg width="386" height="30" viewBox="0 0 386 30" xmlns="http://www.w3.org/2000/svg" xmlns:xlink="http://www.w3.org/1999/xlink">
  <title>
    Group
  </title>
  <defs>
    <path id="a" d="M.3.122h27.113v29.592H.299z"/>
    <path id="c" d="M.305.177H20.17V29.67H.305z"/>
  </defs>
  <g fill="none" fill-rule="evenodd">
    <path fill="#FFF" d="M0 0v27.429h16v-2.372H2.506v-10.29h12.137v-2.315H2.506V2.392h12.867L16 1.737V0zM86.684 14.029c3.73 0 6.416-2.342 6.416-5.76 0-3.419-2.686-5.72-6.416-5.72h-8.42v11.48h8.42zM75.429 0h11.766C92.141-.061 96.063 3.192 96 7.357c0 2.382-1.172 4.33-3.133 6.237l-2.878 2.797h-8.1l13.991 12.656-.672.667h-3.045L78.264 15.997v13.717h-2.835V.001zM119.532 29.697l.175-27.051-9.993-.063.017-2.583 22.84.142-.012 1.871-.704.709-9.335-.058-.174 27.05zM58.825 29.714h2.89L51.078 0h-3.812L36.57 29.714h2.75l2.575-7.22 1.298-3.638.868-2.435 5.07-14.204 5.23 14.848 1.55 4.382h.003l.368 1.045v.002zM146.286 29.714V0h2.833v13.178l17.19-.01V0h2.834v29.714h-2.833V15.082l-.67.667h-16.521v13.965z"/>
    <g transform="translate(230.857)">
      <mask id="b" fill="#fff">
        <use xlink:href="#a"/>
      </mask>
      <path d="M24.792 15.58c.118-7.568-5.36-13.009-11.685-12.908C7.55 2.592 2.88 7.45 2.979 14.295c-.138 7.53 5.202 12.97 11.645 12.87 5.537.1 10.267-4.778 10.168-11.585M7.077 27.747c-2.128-1.305-3.783-3.072-4.985-5.26C.89 20.3.299 17.93.299 15.38c0-4.156 1.497-7.77 4.492-10.882l3.035-3.152C8.93.623 11.058.122 13.324.122c2.719 0 5.143.642 7.29 1.947 2.148 1.305 3.803 3.052 5.005 5.24s1.794 4.597 1.794 7.188c.02 4.115-1.478 7.749-4.513 10.88l-3.074 3.173c-1.261.703-3.29 1.164-5.517 1.164-2.7 0-5.104-.662-7.232-1.967" fill="#FFF" mask="url(#b)"/>
    </g>
    <path fill="#FFF" d="M208.675 29.697l.175-27.051-9.993-.063.017-2.583 22.84.142-.011 1.871-.705.709-9.335-.058-.174 27.05zM292.571 29.714V0h2.834v13.178l17.19-.01V0h2.834v29.714h-2.834V15.082l-.67.667h-16.52v13.965zM331.429 29.714V0h16v1.882l-.628.708h-12.866v10.9h12.137v2.507h-12.137v11.148h13.494v2.569h-.892z"/>
    <g transform="translate(365.714)">
      <mask id="d" fill="#fff">
        <use xlink:href="#c"/>
      </mask>
      <path d="M11.173 14.101c3.603 0 6.197-2.324 6.197-5.717s-2.594-5.676-6.197-5.676h-8.13V14.1h8.13zM.305.178h11.362c4.776-.062 8.563 3.167 8.502 7.3 0 2.366-1.132 4.3-3.026 6.192l-2.779 2.776H6.542l13.511 12.561-.649.663h-2.94L3.042 16.055V29.67H.305V.178z" fill="#FFF" mask="url(#d)"/>
    </g>
  </g>
</svg>