<?xml version="1.0" encoding="UTF-8"?>
<svg width="303px" height="24px" viewBox="0 0 303 24" version="1.1" xmlns="http://www.w3.org/2000/svg" xmlns:xlink="http://www.w3.org/1999/xlink">
    <!-- Generator: Sketch 49.1 (51147) - http://www.bohemiancoding.com/sketch -->
    <title>Page 1 Copy</title>
    <desc>Created with Sketch.</desc>
    <defs>
        <polygon id="path-1" points="0.242663941 0.0982870588 22.2415271 0.0982870588 22.2415271 24 0.242663941 24"></polygon>
        <polygon id="path-3" points="0.236901473 0.139561379 15.6652839 0.139561379 15.6652839 23.3934212 0.236901473 23.3934212"></polygon>
    </defs>
    <g id="2-DESIGN" stroke="none" stroke-width="1" fill="none" fill-rule="evenodd">
        <g id="3_Video-Copy-6" transform="translate(-123.000000, -79.000000)">
            <g id="Page-1-Copy" transform="translate(123.000000, 79.000000)">
                <polygon id="Fill-1" fill="#231F20" points="0 0.571428571 0 23.4285714 12.9314963 23.4285714 13.6949153 23.4285714 13.6949153 22.6589417 13.6949153 21.4524576 2.14532513 21.4524576 2.14532513 12.8769005 12.5334961 12.8769005 12.5334961 10.9482467 2.14532513 10.9482467 2.14532513 2.56419508 13.1578818 2.56419508 13.6949153 2.01965359 13.6949153 0.571428571"></polygon>
                <g id="Group-22" transform="translate(27.389831, 0.000000)">
                    <path d="M41.1853072,11.40048 C43.9830273,11.40048 45.9976641,9.56829176 45.9976641,6.89271529 C45.9976641,4.21742118 43.9830273,2.41713882 41.1853072,2.41713882 L34.8702544,2.41713882 L34.8702544,11.40048 L41.1853072,11.40048 Z M32.7439871,0.422597647 L41.568915,0.422597647 C45.2780515,0.374032941 48.2196942,2.92000941 48.1718128,6.17920941 C48.1718128,8.04386824 47.29241,9.56829176 45.8217279,11.0602447 L43.6634469,13.2490447 L37.5880794,13.2490447 L48.081896,23.1534212 L47.5777496,23.6757741 L45.2939192,23.6757741 L34.8702544,12.9409976 L34.8702544,23.6757741 L32.7439871,23.6757741 L32.7439871,0.422597647 Z" id="Fill-2" fill="#231F20"></path>
                    <polygon id="Fill-4" fill="#231F20" points="66.8857208 23.6685741 67.0185081 2.44297412 59.4087094 2.39384471 59.4215149 0.366832941 76.8155393 0.478644706 76.8063527 1.94659765 76.2696359 2.50255059 69.1609214 2.45680941 69.0281341 23.6824094"></polygon>
                    <polygon id="Fill-6" fill="#231F20" points="17.9973576 23.6757741 20.2995611 23.6757741 11.8262273 0.422597647 8.78854357 0.422597647 0.267328419 23.6757741 2.45762312 23.6757741 4.50984129 18.0256094 5.54374501 15.1786447 5.54318825 15.1786447 6.23551958 13.2733271 10.2753717 2.15765647 14.4413301 13.7770447 15.6773378 17.2059388 15.6792864 17.2059388 15.9724207 18.0236329 15.9729774 18.0256094"></polygon>
                    <polygon id="Fill-8" fill="#231F20" points="87.8955965 23.6512094 87.8955965 0.398032941 90.0218638 0.398032941 90.0218638 10.7109741 102.923668 10.7027859 102.923668 0.398032941 105.049936 0.398032941 105.049936 23.6512094 102.923668 23.6512094 102.923668 12.2009506 102.420357 12.7221741 90.0218638 12.7221741 90.0218638 23.6512094"></polygon>
                    <g id="Group-12" transform="translate(154.500961, 0.000000)">
                        <mask id="mask-2" fill="white">
                            <use xlink:href="#path-1"></use>
                        </mask>
                        <g id="Clip-11"></g>
                        <path d="M20.114828,12.5842165 C20.2108692,6.47099294 15.7662524,2.07673412 10.634315,2.15776941 C6.12594917,2.09282824 2.3369175,6.01725176 2.4168126,11.5462871 C2.30490379,17.6273224 6.63761181,22.0218635 11.8655903,21.9408282 C16.3578101,22.0218635 20.1950015,18.0816282 20.114828,12.5842165 M5.742063,22.4109459 C4.01554956,21.3572047 2.67264392,19.9299106 1.69720001,18.1626635 C0.72231287,16.3951341 0.242663941,14.4816282 0.242663941,12.4221459 C0.242663941,9.06553412 1.45751474,6.14685176 3.88749471,3.63334588 L6.34976678,1.08736941 C7.24503721,0.503463529 8.97155065,0.0982870588 10.8102513,0.0982870588 C13.0164136,0.0982870588 14.9828907,0.617251765 16.7255502,1.67127529 C18.4682097,2.72501647 19.8111153,4.13593412 20.7862809,5.90346353 C21.7614464,7.67099294 22.2413737,9.61668706 22.2413737,11.7089224 C22.2572414,15.0327812 21.0421122,17.96784 18.5801185,20.49744 L16.0861111,23.0597929 C15.0627858,23.62704 13.4161675,24.0000282 11.6097589,24.0000282 C9.41946425,24.0000282 7.46885482,23.4649694 5.742063,22.4109459" id="Fill-10" fill="#231F20" mask="url(#mask-2)"></path>
                    </g>
                    <polygon id="Fill-13" fill="#231F20" points="136.952769 23.6685741 137.085557 2.44297412 129.475758 2.39384471 129.488564 0.366832941 146.88231 0.478644706 146.873401 1.94659765 146.336685 2.50255059 139.22797 2.45680941 139.095183 23.6824094"></polygon>
                    <polygon id="Fill-15" fill="#231F20" points="201.766702 23.6512094 201.766702 0.398032941 203.892969 0.398032941 203.892969 10.7109741 216.794774 10.7027859 216.794774 0.398032941 218.921041 0.398032941 218.921041 23.6512094 216.794774 23.6512094 216.794774 12.2009506 216.291462 12.7221741 203.892969 12.7221741 203.892969 23.6512094"></polygon>
                    <polygon id="Fill-17" fill="#231F20" points="232.500144 23.6760565 232.500144 0.42288 246.073402 0.42288 246.073402 1.89591529 245.541139 2.44989176 234.626412 2.44989176 234.626412 10.9794918 244.9223 10.9794918 244.9223 12.94128 234.626412 12.94128 234.626412 21.6654212 246.073402 21.6654212 246.073402 22.8928094 246.073402 23.6760565 245.316765 23.6760565"></polygon>
                    <g id="Group-21" transform="translate(259.171882, 0.282353)">
                        <mask id="mask-4" fill="white">
                            <use xlink:href="#path-3"></use>
                        </mask>
                        <g id="Clip-20"></g>
                        <path d="M8.67822153,11.1181271 C11.4759416,11.1181271 13.4905785,9.28593882 13.4905785,6.61036235 C13.4905785,3.93506824 11.4759416,2.13478588 8.67822153,2.13478588 L2.36316875,2.13478588 L2.36316875,11.1181271 L8.67822153,11.1181271 Z M0.236901473,0.140244706 L9.06182932,0.140244706 C12.7709659,0.09168 15.7126085,2.63765647 15.6647271,5.89685647 C15.6647271,7.76151529 14.7853244,9.28593882 13.3146422,10.7778918 L11.1563613,12.9666918 L5.08099376,12.9666918 L15.5748104,22.8710682 L15.070664,23.3934212 L12.7868336,23.3934212 L2.36316875,12.6586447 L2.36316875,23.3934212 L0.236901473,23.3934212 L0.236901473,0.140244706 Z" id="Fill-19" fill="#231F20" mask="url(#mask-4)"></path>
                    </g>
                </g>
            </g>
        </g>
    </g>
</svg>